<?xml version="1.0" encoding="utf-8" ?><svg xmlns="http://www.w3.org/2000/svg" xmlns:xlink="http://www.w3.org/1999/xlink" width="558" height="197" viewBox="0 0 558 197"><clipPath id="cl_3"><rect x="6.1035156e-05" width="558" height="197"/></clipPath><g clip-path="url(#cl_3)"><path fill="#203C73" transform="translate(-230 -407)" d="M300.493 436.661C303.24 435.986 305.891 435.476 308.731 435.444C311.388 435.414 315.465 435.969 317.208 438.305C319.833 441.823 326.108 499.852 324.783 505.4C323.593 506.464 322.653 506.901 321.058 507.128C318.447 507.498 313.367 507.489 311.323 505.49C308.223 502.46 307.168 466.184 306.585 460.121C306.512 457.972 306.601 455.793 306.613 453.641C301.74 467.765 297.993 482.823 291.835 496.432C290.596 499.168 289.32 501.354 286.277 502.264C284.408 502.823 280.019 502.174 278.398 501.144C272.448 497.361 262.905 461.211 260.432 452.784C260.836 464.403 259.155 476.572 258.324 488.175C257.995 492.765 258.4 498.892 257.122 503.252C256.675 504.771 255.608 506.031 254.184 506.724C251.76 507.905 248.104 507.766 245.665 506.714C244.408 506.171 243.143 505.201 242.808 503.803C241.676 499.069 247.264 441.571 249.313 438.584C250.531 436.807 252.309 436.297 254.255 435.684C257.645 435.53 261.489 435.241 264.678 436.583C266.366 437.293 267.323 438.313 268.21 439.906C270.991 444.904 272.481 451.07 274.283 456.507C277.227 465.387 280.153 474.34 283.791 482.962C287.514 470.901 294.378 446.458 300.493 436.661Z"/><path fill="#203C73" transform="translate(-230 -407)" d="M642.08 453.156C643.72 453.282 646.096 453.647 647.461 454.651C649.497 456.149 649.646 458.496 650.125 460.802C651.175 460.939 654.653 457.443 655.804 456.653C660.058 453.737 665.459 452.15 670.595 453.223C676.016 454.355 679.245 457.737 682.227 462.093C682.95 461.234 683.697 460.397 684.469 459.582C688.625 455.256 693.959 453.217 699.893 453.175C704.401 453.144 708.625 454.287 711.812 457.641C720.291 466.564 717.48 494.265 717.313 506.247C714.14 506.857 708.27 508.123 705.299 506.667C699.387 503.77 704.157 477.961 700.807 469.69C700.054 467.828 698.803 465.981 696.75 465.426C693.514 464.551 689.969 466.57 687.364 468.237C682.065 475.401 683.383 486.818 683.863 495.262C684.006 497.774 684.361 500.725 683.666 503.166C683.226 504.714 682.326 506 680.835 506.697C678.524 507.778 675.204 507.615 672.855 506.728C664.518 503.58 671.927 478.904 667.924 470.094C667.153 468.397 664.959 465.725 663.065 465.329C660.807 464.857 657.501 466.189 655.692 467.497C646.517 474.127 652.728 492.719 650.848 502.205C650.467 504.123 649.653 505.723 647.932 506.764C645.624 508.159 642.017 507.445 639.647 506.628C638.049 506.077 636.992 505.025 636.373 503.483C635.141 500.411 635.385 458.568 636.934 455.914C637.964 454.15 640.283 453.667 642.08 453.156Z"/><path fill="#203C73" transform="translate(-230 -407)" d="M503.361 435.551C504.585 435.499 505.811 435.475 507.036 435.478C509.289 435.504 511.176 436.207 512.722 437.884C517.352 442.907 515.066 457.36 514.806 464.037C524.658 463.466 534.665 463.754 544.537 463.746C544.31 457.718 542.089 441.636 546.519 437.313C548.058 435.811 549.827 435.474 551.915 435.494C554.492 435.52 556.604 436.121 558.404 437.987C559.088 439.559 559.296 440.959 559.427 442.667C560.385 455.158 559.558 468.268 559.519 480.829C559.494 489.068 560.289 497.748 559.401 505.907C558.32 506.81 556.844 506.75 555.464 506.964C554.043 506.988 552.621 506.994 551.2 506.982C549.348 506.955 547.022 506.878 545.806 505.231C542.741 501.079 544.032 482.462 544.428 477.001C534.593 476.925 524.758 476.943 514.923 477.055C514.718 486.805 515.136 496.56 514.889 506.314L512.996 506.509C509.159 506.888 504.275 507.671 501.077 505.052C499.038 499.842 498.257 444.441 500.16 438.627C500.692 437.001 501.979 436.381 503.361 435.551Z"/><path fill="#203C73" transform="translate(-230 -407)" d="M594.238 453.205C609.315 450.943 623.372 461.327 625.641 476.403C627.91 491.478 617.532 505.54 602.457 507.816C587.373 510.093 573.3 499.707 571.03 484.622C568.76 469.537 579.152 455.469 594.238 453.205ZM600.364 495.538C604.343 494.167 606.819 492.379 608.639 488.49C610.806 483.861 610.821 477.779 608.974 473.045C607.76 469.934 605.343 466.977 602.156 465.759C600.71 465.207 598.914 464.975 597.368 464.973C593.194 466.387 590.525 468.041 588.43 472.046C586.059 476.578 585.849 482.303 587.602 487.079C588.82 490.397 591.169 493.338 594.435 494.82C596.403 495.713 598.244 495.628 600.364 495.538Z"/><path fill="#203C73" transform="translate(-230 -407)" d="M749.967 453.148C755 452.614 760.396 452.908 765.12 454.842C770.958 457.231 775.302 462.742 777.502 468.527C778.909 472.227 780.309 477.551 778.388 481.239C773.531 490.565 752.503 481.38 745.482 484.909C744.25 485.528 744.221 485.853 743.812 487.077C744.235 489.938 745.132 491.291 747.468 493.014C756.21 499.462 761.907 494.015 771.163 492.625L771.876 492.523C773.939 493.513 775.417 494.425 776.138 496.742C776.561 498.101 776.356 499.458 775.656 500.673C773.76 503.969 769.384 505.762 765.899 506.685C757.426 508.93 747.687 508.573 740.054 503.944C734.229 500.432 730.112 494.672 728.677 488.024C726.903 480.012 728.073 470.424 732.713 463.581C736.916 457.382 742.823 454.504 749.967 453.148ZM742.566 475.5C747.168 475.382 751.772 475.331 756.376 475.346L765.26 475.307C764.321 471.715 763.42 467.943 760.04 465.838C757.36 464.168 754.072 464.286 751.042 464.544C746.23 467.407 744.78 470.587 742.566 475.5Z"/><path fill="#203C73" transform="translate(-230 -407)" d="M358.171 453.221C365.305 452.915 371.793 453.889 377.348 458.764C382.294 463.104 385.856 470.103 386.169 476.739C386.275 478.977 385.92 481.548 384.238 483.187C380.348 486.978 355.7 485.146 349.432 484.919C350.103 486.585 350.749 488.321 351.615 489.896C359.289 503.843 370.805 490.055 380.853 493.132C381.766 494.055 382.982 495.268 383.372 496.529C383.826 497.996 383.693 499.027 382.937 500.338C380.792 504.057 376.499 505.894 372.503 506.839C364.112 508.822 353.958 508.286 346.581 503.522C340.859 499.827 337.14 493.964 335.743 487.347C334.074 479.448 335.313 470.534 339.92 463.812C344.387 457.294 350.636 454.5 358.171 453.221ZM349.942 475.479L365.125 475.496L372.521 475.526C371.274 471.824 370.125 467.512 366.401 465.542C363.924 464.231 361.296 464.448 358.595 464.54C353.61 467.222 351.843 469.413 350.108 474.916C350.049 475.103 349.997 475.292 349.942 475.479Z"/><path fill="#203C73" transform="translate(-230 -407)" d="M463.23 453.19C467.539 453.002 471.727 453.075 475.956 454.025C479.086 454.728 483.074 456.091 484.786 459.034C485.674 460.561 485.781 462.227 485.355 463.915C483.88 469.757 466.418 462.021 460.03 465.893C459.798 466.371 459.459 466.77 459.557 467.32C460.73 473.95 478.17 476.659 483.356 480.851C485.85 482.867 487.418 485.487 487.671 488.714C487.988 492.753 486.552 498.101 483.854 501.168C479.059 506.62 471.678 507.509 464.895 508.005C458.459 507.452 451.946 507.361 446.919 502.637C445.095 500.924 443.953 499.105 443.939 496.562C444.258 495.672 444.483 495.187 445.211 494.542C451.099 489.322 457.252 496.291 463.033 496.706C466.015 496.921 470.069 496.758 472.318 494.565C473.23 493.676 473.327 492.941 473.311 491.741C470.019 486.044 457.441 484.972 451.809 481.341C448.533 479.23 446.072 476.157 445.423 472.245C444.739 468.126 446.091 463.224 448.568 459.893C452.141 455.089 457.697 454.05 463.23 453.19Z"/><path fill="#203C73" transform="translate(-230 -407)" d="M413.144 453.192C418.124 452.949 423.244 453.291 427.997 454.896C430.269 455.663 433.381 457.038 434.289 459.477C434.794 460.836 434.548 462.262 433.96 463.542C430.13 471.888 417.995 461.229 411.898 464.015C410.096 464.838 409.652 466 409.102 467.746C410.275 475.531 427.104 475.404 432.596 480.255C435.277 482.624 436.362 486.03 436.611 489.505C436.929 493.934 436.286 497.661 433.223 501.052C428.091 506.734 420.991 507.559 413.825 507.849C407.974 507.473 401.892 507.125 396.898 503.653C394.828 502.213 394.001 500.476 393.674 498.007C393.442 496.254 393.888 495.424 394.972 494.095C401.593 490.937 409.242 497.075 415.989 496.975C417.906 496.946 420.71 496.243 421.983 494.699C422.886 493.604 422.849 493.103 422.765 491.791C419.096 485.837 405.047 484.738 399.089 479.906C396.351 477.687 394.403 474.66 394.056 471.106C393.686 467.32 395.121 462.894 397.544 459.977C401.414 455.32 407.384 453.764 413.144 453.192Z"/><path fill="#64ABCE" transform="translate(-230 -407)" d="M483.68 532.625C490.046 532.318 497.824 531.29 503.138 535.611C506.482 538.331 508.036 542.384 508.303 546.599C508.605 551.387 507.385 555.655 504.194 559.232C500.763 561.81 496.881 562.855 492.639 563.024C490.006 563.129 486.382 563.679 484.305 561.771C482.224 555.359 483.336 539.844 483.68 532.625ZM488.494 559.196C492.816 558.996 496.436 558.804 500.164 556.315C502.448 553.638 504.214 549.981 503.817 546.357C503.488 543.365 501.721 540.747 499.299 539.025C495.814 536.548 492.498 536.423 488.402 536.177C488.475 543.85 488.506 551.523 488.494 559.196Z"/><path fill="#64ABCE" transform="translate(-230 -407)" d="M585.572 529.816C586.601 529.996 588.452 530.314 589.125 531.142C591.218 533.716 590.172 539.745 590.08 542.893C591.389 541.922 592.719 540.957 594.298 540.47C596.739 539.718 599.457 539.854 601.666 541.204C604.058 542.666 605.478 545.265 606.081 547.938C607.097 552.436 605.958 556.516 603.592 560.352C601.684 562.079 599.779 562.909 597.439 563.871C594.92 563.192 592.549 562.154 590.007 561.542C589.556 561.795 589.109 562.056 588.646 562.287C587.487 562.864 587.429 562.981 586.257 562.568C583.489 557.584 585.322 536.5 585.572 529.816ZM597.022 559.371C599.187 558.303 600.283 557.203 601.087 554.88C601.946 552.397 601.96 549.6 600.803 547.21C600.108 545.777 598.999 544.658 597.441 544.19C596.756 543.984 595.869 544.004 595.153 543.982C592.415 545.278 590.828 546.245 589.839 549.225C589.172 551.235 589.182 553.342 590.136 555.258C590.943 556.878 592.471 558.412 594.252 558.912C595.144 559.163 596.103 559.261 597.022 559.371Z"/><path fill="#64ABCE" transform="translate(-230 -407)" d="M693.642 530.354C695.169 530.396 697.087 530.318 698.245 531.416C699.244 539.564 698.914 549.177 698.455 557.397C698.342 559.43 698.392 561.774 696.822 563.161C695.084 563.041 694.608 561.759 693.249 561.459C691.802 561.139 687.936 563.762 682.734 562.39C680.433 560.652 679.077 558.693 677.603 556.258C677.305 552.693 677.181 549.35 678.591 545.981C679.609 543.55 681.295 541.528 683.84 540.637C687.471 539.364 690.615 540.637 693.877 542.213C693.872 538.261 693.651 534.31 693.642 530.354ZM689.552 559.688C691.238 558.523 692.572 557.365 693.93 555.83C694.047 552.393 694.681 547.609 691.826 545.043C690.257 543.632 688.436 543.496 686.427 543.441C683.839 545.593 682.291 547.446 681.9 550.898C681.652 553.087 682.156 555.26 683.586 556.97C685.205 558.904 687.157 559.378 689.552 559.688Z"/><path fill="#64ABCE" transform="translate(-230 -407)" d="M618.792 539.568C620.768 539.466 622.732 539.486 624.629 540.118C627.586 541.085 630.027 543.204 631.401 545.995C632.911 549.048 633.123 552.789 631.905 555.975C630.372 559.988 627.685 561.741 623.934 563.489C621.81 563.575 619.486 563.73 617.47 562.95C614.388 561.758 611.86 559.145 610.691 556.068C609.451 552.805 609.4 549.018 610.873 545.822C612.561 542.157 615.126 540.845 618.792 539.568ZM623.648 559.498C626.142 557.208 627.468 555.308 627.71 551.836C627.866 549.593 627.29 547.366 625.782 545.656C624.525 544.231 623.108 543.482 621.203 543.449C620.413 543.444 619.624 543.462 618.836 543.504C616.418 545.726 614.908 548.066 614.734 551.437C614.617 553.712 615.332 555.903 616.942 557.544C618.744 559.379 620.632 559.593 623.079 559.52L623.648 559.498Z"/><path fill="#64ABCE" transform="translate(-230 -407)" d="M403.079 543.217C403.764 542.746 404.463 542.295 405.174 541.865C407.701 540.35 410.357 539.104 413.357 539.966C415.217 540.5 416.516 541.946 417.358 543.625C419.311 547.522 419.906 556.357 418.368 560.486C417.914 561.706 417.756 561.734 416.633 562.251C412.7 560.927 414.287 551.185 413.678 547.595C413.415 546.046 412.641 544.643 411.908 543.273C409.501 543.781 407.204 544.316 405.624 546.363C402.925 549.861 404.011 555.323 404.479 559.404L404.245 561.177C403.27 562.249 403.19 562.443 401.796 562.753C397.257 559.941 400.431 551.205 399.007 546.613C398.559 545.165 397.834 544.148 396.47 543.438C385.536 544.192 393.069 557.613 388.525 562.427L387.391 562.297C386.825 561.813 386.426 561.373 386.13 560.677C384.73 557.386 383.976 544.678 385.844 541.499C386.401 540.552 386.601 540.44 387.633 540.232C388.313 541.354 388.61 542.039 389.859 542.588C391.821 542.368 393.745 540.403 395.61 539.505C399.037 540.003 400.597 540.804 403.079 543.217Z"/><path fill="#64ABCE" transform="translate(-230 -407)" d="M642.497 540.12C644.316 539.981 646.449 539.787 648.242 540.11C650.359 540.492 652.409 542.174 653.625 543.887C656.274 547.617 656.588 554.119 655.794 558.525C655.482 560.262 655.043 561.86 653.477 562.86C651.32 564.238 651.658 561.57 650.479 561.107C648.969 560.513 645.378 563.153 643.646 563.344C642.219 563.501 640.53 562.955 639.148 562.619C638.398 562.08 637.785 561.492 637.186 560.792C636.045 559.458 634.821 557.651 635.186 555.802C636.281 550.258 646.107 550.634 649.556 547.616C650.216 547.038 650.06 546.91 650.152 546.097C646.487 542.353 641.322 545.875 637.672 543.494L637.863 542.691C639.28 541.261 640.621 540.789 642.497 540.12ZM644.053 560.096C646.56 559.245 649.261 558.062 650.524 555.529C650.795 554.985 650.866 554.366 650.96 553.778C650.606 553.128 650.674 552.864 649.918 552.65C649.274 552.468 648.882 552.469 648.231 552.53C645.258 553.27 642.671 553.704 640.697 556.259C640.619 557.446 640.642 557.954 641.618 558.848C642.245 559.422 643.28 559.782 644.053 560.096Z"/><path fill="#64ABCE" transform="translate(-230 -407)" d="M519.011 540.162C520.264 540.101 521.526 540.039 522.778 540.131C525.492 540.331 527.553 541.269 529.298 543.396C532.173 546.902 532.245 552.547 531.868 556.886C531.67 559.171 531.516 561.568 529.653 563.13C527.98 563.16 527.521 562.314 526.277 561.254C524.078 562.08 521.885 562.922 519.699 563.78C517.844 563.25 516.103 562.628 514.328 561.874C514.219 561.754 514.108 561.636 514 561.516C512.611 559.965 511.124 557.898 511.511 555.676C512.52 549.88 522.675 550.943 526.111 547.635C526.692 547.076 526.464 547.137 526.374 546.203C522.376 542.399 518.174 546.252 513.934 544.087C513.749 543.123 513.606 543.38 514.117 542.613C515.205 540.98 517.232 540.649 519.011 540.162ZM518.918 559.577C521.559 559.627 523.959 559.022 525.795 556.94C526.47 556.174 526.782 555.506 526.853 554.504C526.425 553.719 526.293 553.077 525.484 552.654C522.702 553.084 519.711 553.324 517.57 555.337C517.166 556.555 516.948 556.947 517.598 558.171C517.844 558.635 518.565 559.235 518.918 559.577Z"/><path fill="#64ABCE" transform="translate(-230 -407)" d="M367.801 540.172C368.664 540.154 369.527 540.157 370.389 540.182C372.694 540.265 374.562 540.896 376.091 542.686C379.218 546.348 379.349 552.264 379.011 556.871C378.875 558.717 378.76 560.867 377.284 562.129C372.307 562.353 365.14 563.924 361.006 560.914C360.398 559.682 359.963 558.327 359.843 556.949C359.163 549.119 370.514 551.077 373.772 547.017L373.594 545.881C370.556 542.101 365.057 546.165 361.309 543.944L361.346 543.064C363.121 540.762 365.025 540.581 367.801 540.172ZM368.115 559.798C370.66 559.061 372.33 558.453 373.593 556C373.903 555.399 373.951 554.882 373.951 554.219C373.373 553.29 373.24 552.713 372.058 552.531C371.37 552.426 370.429 552.614 369.729 552.688C368.174 553.148 366.278 553.537 365.287 554.953C364.447 556.15 364.611 556.615 364.914 557.917C365.884 559.109 366.713 559.357 368.115 559.798Z"/><path fill="#64ABCE" transform="translate(-230 -407)" d="M559.977 529.158C560.883 529.458 561.772 529.856 562.66 530.209C564.091 531.718 564.267 533.418 564.24 535.422C564.212 537.605 564.348 539.75 564.489 541.927C567.186 540.73 569.867 539.663 572.874 540.245C574.884 540.633 576.539 541.705 577.664 543.424C580.093 547.135 580.265 554.922 579.163 559.101C578.746 560.683 578.227 561.999 576.748 562.829L575.774 562.406C573.756 558.742 574.292 554.917 574.429 550.875C574.482 549.755 574.593 547.946 574.172 546.873C573.712 545.702 573.032 544.906 571.805 544.503C569.395 543.711 566.403 545.521 564.441 546.68C564.385 551.339 565.809 557.995 562.748 561.953C562.122 562.764 562.47 562.573 561.596 562.689C561.473 562.572 561.333 562.47 561.225 562.339C557.862 558.266 559.39 534.943 559.977 529.158Z"/><path fill="#64ABCE" transform="translate(-230 -407)" d="M339.517 532.209C344.3 531.91 352.086 531.008 356.128 533.729L356.125 534.557C352.372 536.762 346.398 536.064 342.115 536.051L342.033 545.557C345.546 545.414 352.295 544.365 355.156 546.439C355.594 547.796 355.491 548.016 355.119 549.412C350.894 549.562 346.637 549.469 342.408 549.481C342.5 552.664 342.799 556.042 342.426 559.21C342.246 560.74 341.952 561.611 340.769 562.598C339.971 562.517 339.673 562.671 339.097 562.017C336.204 558.731 336.869 539.755 337.648 534.971C337.893 533.46 338.322 533.103 339.517 532.209Z"/><path fill="#64ABCE" transform="translate(-230 -407)" d="M446.527 539.887C447.493 539.978 448.631 539.993 449.474 540.547C453.489 543.185 455.72 553.016 456.802 557.476C458.81 552.744 459.821 546.442 462.834 542.308C463.63 541.216 464.554 540.253 465.899 540.076C465.981 540.211 466.084 540.337 466.146 540.483C467.686 544.105 463.457 552.745 462.023 556.37C460.575 560.388 458.641 568.504 454.644 570.749C453.375 571.462 452.279 571.617 450.872 571.25C449.906 570.997 450.212 571.142 449.688 570.27C450.366 568.13 453.515 565.552 454.857 563.489L455.192 562.963C451.673 556.214 446.928 547.626 446.527 539.887Z"/><path fill="#64ABCE" transform="translate(-230 -407)" d="M543.087 540.22C544.295 540.169 545.503 540.14 546.712 540.134C549.627 540.134 551.358 540.624 553.424 542.683L553.346 543.46C549.912 545.188 545.311 543.497 541.981 545.335L541.8 546.249C545.515 549.601 551.062 550.671 554.226 554.752C555.27 556.098 555.301 557.005 555.055 558.638C553.28 561.231 550.881 562.047 547.993 563.027C545.112 563.166 540.307 563.479 537.86 561.814C536.826 561.111 536.773 560.855 536.616 559.717C538.796 556.832 545.796 560.231 549.354 557.851C549.508 554.497 539.336 551.232 537.311 547.317C536.671 546.08 536.671 545.415 536.987 544.089C538.326 541.996 540.771 540.897 543.087 540.22Z"/><path fill="#64ABCE" transform="translate(-230 -407)" d="M437.507 530.143C438.832 530.33 439.591 530.425 440.726 531.2C443.04 535.712 442.237 557.15 441.438 562.619C439.989 562.548 439.243 562.655 437.992 561.885C435.594 556.339 437.301 537.257 437.507 530.143Z"/><path fill="#64ABCE" transform="translate(-230 -407)" d="M670.67 539.987C672.302 540.01 673.542 539.996 675.052 540.731C675.924 543.486 668.517 544.964 667.128 547.319C665.358 550.321 666.969 559.044 665.34 563.774C664.496 563.559 663.326 563.343 662.868 562.555C661.065 559.451 661.405 546.328 662.18 542.832C662.862 539.753 665.78 542.224 667.96 541.579C668.771 541.339 669.906 540.436 670.67 539.987Z"/><path fill="#64ABCE" transform="translate(-230 -407)" d="M426.034 539.816C426.501 539.874 426.968 539.932 427.429 540.024C428.684 540.275 429.171 540.375 429.895 541.444C430.509 547.114 430.935 557.94 429.119 563.216C427.969 562.944 427.003 562.632 425.935 562.127C423.616 557.152 425.051 545.322 426.034 539.816Z"/><path fill="#64ABCE" transform="translate(-230 -407)" d="M426.704 530.743C428.062 530.175 429.623 530.807 430.203 532.159C430.784 533.511 430.166 535.078 428.82 535.671C427.455 536.272 425.863 535.644 425.275 534.274C424.687 532.904 425.329 531.318 426.704 530.743Z"/></g></svg>